<?xml version="1.0" encoding="us-ascii" standalone="no"?><svg xmlns="http://www.w3.org/2000/svg" xmlns:xlink="http://www.w3.org/1999/xlink" contentStyleType="text/css" height="911px" preserveAspectRatio="none" style="width:1401px;height:911px;background:#FFFFFF;" version="1.1" viewBox="0 0 1401 911" width="1401px" zoomAndPan="magnify"><defs/><g><!--cluster HR--><g id="cluster_HR"><path d="M466.5,557 L487.5,557 A3.75,3.75 0 0 1 490,559.5 L497,580.6094 L691.5,580.6094 A2.5,2.5 0 0 1 694,583.1094 L694,901.5 A2.5,2.5 0 0 1 691.5,904 L466.5,904 A2.5,2.5 0 0 1 464,901.5 L464,559.5 A2.5,2.5 0 0 1 466.5,557 " fill="none" style="stroke:#000000;stroke-width:1.5;"/><line style="stroke:#000000;stroke-width:1.5;" x1="464" x2="497" y1="580.6094" y2="580.6094"/><text fill="#000000" font-family="sans-serif" font-size="14" font-weight="bold" lengthAdjust="spacing" textLength="20" x="468" y="573.5332">HR</text></g><!--cluster Production--><g id="cluster_Production"><path d="M720.5,272.5 L798.5,272.5 A3.75,3.75 0 0 1 801,275 L808,296.1094 L1147.5,296.1094 A2.5,2.5 0 0 1 1150,298.6094 L1150,875 A2.5,2.5 0 0 1 1147.5,877.5 L720.5,877.5 A2.5,2.5 0 0 1 718,875 L718,275 A2.5,2.5 0 0 1 720.5,272.5 " fill="none" style="stroke:#000000;stroke-width:1.5;"/><line style="stroke:#000000;stroke-width:1.5;" x1="718" x2="808" y1="296.1094" y2="296.1094"/><text fill="#000000" font-family="sans-serif" font-size="14" font-weight="bold" lengthAdjust="spacing" textLength="77" x="722" y="289.0332">Production</text></g><!--cluster Sales--><g id="cluster_Sales"><path d="M8.5,6 L47.5,6 A3.75,3.75 0 0 1 50,8.5 L57,29.6094 L437.5,29.6094 A2.5,2.5 0 0 1 440,32.1094 L440,875 A2.5,2.5 0 0 1 437.5,877.5 L8.5,877.5 A2.5,2.5 0 0 1 6,875 L6,8.5 A2.5,2.5 0 0 1 8.5,6 " fill="none" style="stroke:#000000;stroke-width:1.5;"/><line style="stroke:#000000;stroke-width:1.5;" x1="6" x2="57" y1="29.6094" y2="29.6094"/><text fill="#000000" font-family="sans-serif" font-size="14" font-weight="bold" lengthAdjust="spacing" textLength="38" x="10" y="22.5332">Sales</text></g><!--cluster Stats--><g id="cluster_Stats"><path d="M1176.5,23.5 L1212.5,23.5 A3.75,3.75 0 0 1 1215,26 L1222,47.1094 L1391.5,47.1094 A2.5,2.5 0 0 1 1394,49.6094 L1394,432 A2.5,2.5 0 0 1 1391.5,434.5 L1176.5,434.5 A2.5,2.5 0 0 1 1174,432 L1174,26 A2.5,2.5 0 0 1 1176.5,23.5 " fill="none" style="stroke:#000000;stroke-width:1.5;"/><line style="stroke:#000000;stroke-width:1.5;" x1="1174" x2="1222" y1="47.1094" y2="47.1094"/><text fill="#000000" font-family="sans-serif" font-size="14" font-weight="bold" lengthAdjust="spacing" textLength="35" x="1178" y="40.0332">Stats</text></g><!--class Employees--><g id="elem_Employees"><rect codeLine="6" fill="#F1F1F1" height="294.5313" id="Employees" rx="2.5" ry="2.5" style="stroke:#181818;stroke-width:0.5;" width="179.3333" x="480.5" y="593"/><ellipse cx="531.4167" cy="609" fill="#FFFFFF" rx="11" ry="11" style="stroke:#181818;stroke-width:1.0;"/><path d="M532.3385,606.3906 L532.3385,613.0469 L533.4948,613.0469 Q534.1042,613.0469 534.362,613.2813 Q534.6198,613.5156 534.6198,613.9063 Q534.6198,614.2813 534.362,614.5156 Q534.1042,614.75 533.4948,614.75 L529.5104,614.75 Q528.8854,614.75 528.6276,614.5156 Q528.3698,614.2813 528.3698,613.8906 Q528.3698,613.5156 528.6276,613.2813 Q528.8854,613.0469 529.5104,613.0469 L530.6354,613.0469 L530.6354,606.3906 L528.7917,606.3906 L528.7917,608 Q528.7917,608.6094 528.5573,608.875 Q528.3229,609.1406 527.9479,609.1406 Q527.5729,609.1406 527.3385,608.875 Q527.1042,608.6094 527.1042,608 L527.1042,604.6875 L535.9167,604.6875 L535.9167,608 Q535.9167,608.6094 535.6745,608.875 Q535.4323,609.1406 535.0573,609.1406 Q534.6823,609.1406 534.4479,608.875 Q534.2135,608.6094 534.2135,608 L534.2135,606.3906 L532.3385,606.3906 Z " fill="#000000"/><text fill="#000000" font-family="sans-serif" font-size="14" lengthAdjust="spacing" textLength="69" x="551.9167" y="614.7285">Employees</text><line style="stroke:#181818;stroke-width:0.5;" x1="481.5" x2="658.8333" y1="625" y2="625"/><path d="M493.9167,633.776 C492.3067,633.776 491,635.0827 491,636.6927 C491,636.8794 491,637.066 491.035,637.241 L487.5,640.776 L487.5,643.1094 L491,643.1094 L491,640.776 L493.3333,640.776 L493.3333,639.6094 L493.3683,639.5744 C493.5433,639.6094 493.73,639.6094 493.9167,639.6094 C495.5267,639.6094 496.8333,638.3027 496.8333,636.6927 C496.8333,635.0827 495.5267,633.776 493.9167,633.776 M494.5,634.9427 C495.1417,634.9427 495.6667,635.4677 495.6667,636.1094 C495.6667,636.751 495.1417,637.276 494.5,637.276 C493.8583,637.276 493.3333,636.751 493.3333,636.1094 C493.3333,635.4677 493.8583,634.9427 494.5,634.9427 " fill="#B8861B" style="stroke:;stroke-width:0.0;stroke-dasharray:;"/><text fill="#000000" font-family="sans-serif" font-size="14" font-weight="bold" lengthAdjust="spacing" textLength="43" x="501.8333" y="643.5332">empid</text><text fill="#000000" font-family="sans-serif" font-size="14" lengthAdjust="spacing" textLength="61" x="544.8333" y="643.5332">: int &#171;PK&#187;</text><path d="M491,651.3854 C489.0633,651.3854 487.5,652.9488 487.5,654.8854 C487.5,656.8221 489.0633,658.3854 491,658.3854 C492.9367,658.3854 494.5,656.8221 494.5,654.8854 C494.5,652.9488 492.9367,651.3854 491,651.3854 " fill="#EFEFEF" style="stroke:;stroke-width:0.0;stroke-dasharray:;"/><text fill="#000000" font-family="sans-serif" font-size="14" lengthAdjust="spacing" textLength="121" x="501.8333" y="661.1426">lastname: nvarchar</text><path d="M491,668.9948 C489.0633,668.9948 487.5,670.5581 487.5,672.4948 C487.5,674.4315 489.0633,675.9948 491,675.9948 C492.9367,675.9948 494.5,674.4315 494.5,672.4948 C494.5,670.5581 492.9367,668.9948 491,668.9948 " fill="#EFEFEF" style="stroke:;stroke-width:0.0;stroke-dasharray:;"/><text fill="#000000" font-family="sans-serif" font-size="14" lengthAdjust="spacing" textLength="122" x="501.8333" y="678.752">firstname: nvarchar</text><path d="M491,686.6042 C489.0633,686.6042 487.5,688.1675 487.5,690.1042 C487.5,692.0408 489.0633,693.6042 491,693.6042 C492.9367,693.6042 494.5,692.0408 494.5,690.1042 C494.5,688.1675 492.9367,686.6042 491,686.6042 " fill="#EFEFEF" style="stroke:;stroke-width:0.0;stroke-dasharray:;"/><text fill="#000000" font-family="sans-serif" font-size="14" lengthAdjust="spacing" textLength="86" x="501.8333" y="696.3613">title: nvarchar</text><path d="M491,704.2135 C489.0633,704.2135 487.5,705.7769 487.5,707.7135 C487.5,709.6502 489.0633,711.2135 491,711.2135 C492.9367,711.2135 494.5,709.6502 494.5,707.7135 C494.5,705.7769 492.9367,704.2135 491,704.2135 " fill="#EFEFEF" style="stroke:;stroke-width:0.0;stroke-dasharray:;"/><text fill="#000000" font-family="sans-serif" font-size="14" lengthAdjust="spacing" textLength="152" x="501.8333" y="713.9707">titleofcourtesy: nvarchar</text><path d="M491,721.8229 C489.0633,721.8229 487.5,723.3863 487.5,725.3229 C487.5,727.2596 489.0633,728.8229 491,728.8229 C492.9367,728.8229 494.5,727.2596 494.5,725.3229 C494.5,723.3863 492.9367,721.8229 491,721.8229 " fill="#EFEFEF" style="stroke:;stroke-width:0.0;stroke-dasharray:;"/><text fill="#000000" font-family="sans-serif" font-size="14" lengthAdjust="spacing" textLength="92" x="501.8333" y="731.5801">birthdate: date</text><path d="M491,739.4323 C489.0633,739.4323 487.5,740.9956 487.5,742.9323 C487.5,744.869 489.0633,746.4323 491,746.4323 C492.9367,746.4323 494.5,744.869 494.5,742.9323 C494.5,740.9956 492.9367,739.4323 491,739.4323 " fill="#EFEFEF" style="stroke:;stroke-width:0.0;stroke-dasharray:;"/><text fill="#000000" font-family="sans-serif" font-size="14" lengthAdjust="spacing" textLength="88" x="501.8333" y="749.1895">hiredate: date</text><path d="M491,757.0417 C489.0633,757.0417 487.5,758.605 487.5,760.5417 C487.5,762.4783 489.0633,764.0417 491,764.0417 C492.9367,764.0417 494.5,762.4783 494.5,760.5417 C494.5,758.605 492.9367,757.0417 491,757.0417 " fill="#EFEFEF" style="stroke:;stroke-width:0.0;stroke-dasharray:;"/><text fill="#000000" font-family="sans-serif" font-size="14" lengthAdjust="spacing" textLength="115" x="501.8333" y="766.7988">address: nvarchar</text><path d="M491,774.651 C489.0633,774.651 487.5,776.2144 487.5,778.151 C487.5,780.0877 489.0633,781.651 491,781.651 C492.9367,781.651 494.5,780.0877 494.5,778.151 C494.5,776.2144 492.9367,774.651 491,774.651 " fill="#EFEFEF" style="stroke:;stroke-width:0.0;stroke-dasharray:;"/><text fill="#000000" font-family="sans-serif" font-size="14" lengthAdjust="spacing" textLength="85" x="501.8333" y="784.4082">city: nvarchar</text><path d="M491,792.2604 C489.0633,792.2604 487.5,793.8238 487.5,795.7604 C487.5,797.6971 489.0633,799.2604 491,799.2604 C492.9367,799.2604 494.5,797.6971 494.5,795.7604 C494.5,793.8238 492.9367,792.2604 491,792.2604 " fill="#EFEFEF" style="stroke:;stroke-width:0.0;stroke-dasharray:;"/><text fill="#000000" font-family="sans-serif" font-size="14" lengthAdjust="spacing" textLength="104" x="501.8333" y="802.0176">region: nvarchar</text><path d="M491,809.8698 C489.0633,809.8698 487.5,811.4331 487.5,813.3698 C487.5,815.3065 489.0633,816.8698 491,816.8698 C492.9367,816.8698 494.5,815.3065 494.5,813.3698 C494.5,811.4331 492.9367,809.8698 491,809.8698 " fill="#EFEFEF" style="stroke:;stroke-width:0.0;stroke-dasharray:;"/><text fill="#000000" font-family="sans-serif" font-size="14" lengthAdjust="spacing" textLength="133" x="501.8333" y="819.627">postalcode: nvarchar</text><path d="M491,827.4792 C489.0633,827.4792 487.5,829.0425 487.5,830.9792 C487.5,832.9158 489.0633,834.4792 491,834.4792 C492.9367,834.4792 494.5,832.9158 494.5,830.9792 C494.5,829.0425 492.9367,827.4792 491,827.4792 " fill="#EFEFEF" style="stroke:;stroke-width:0.0;stroke-dasharray:;"/><text fill="#000000" font-family="sans-serif" font-size="14" lengthAdjust="spacing" textLength="111" x="501.8333" y="837.2363">country: nvarchar</text><path d="M491,845.0885 C489.0633,845.0885 487.5,846.6519 487.5,848.5885 C487.5,850.5252 489.0633,852.0885 491,852.0885 C492.9367,852.0885 494.5,850.5252 494.5,848.5885 C494.5,846.6519 492.9367,845.0885 491,845.0885 " fill="#EFEFEF" style="stroke:;stroke-width:0.0;stroke-dasharray:;"/><text fill="#000000" font-family="sans-serif" font-size="14" lengthAdjust="spacing" textLength="104" x="501.8333" y="854.8457">phone: nvarchar</text><path d="M493.9167,862.6979 C492.3067,862.6979 491,864.0046 491,865.6146 C491,865.8013 491,865.9879 491.035,866.1629 L487.5,869.6979 L487.5,872.0313 L491,872.0313 L491,869.6979 L493.3333,869.6979 L493.3333,868.5313 L493.3683,868.4963 C493.5433,868.5313 493.73,868.5313 493.9167,868.5313 C495.5267,868.5313 496.8333,867.2246 496.8333,865.6146 C496.8333,864.0046 495.5267,862.6979 493.9167,862.6979 M494.5,863.8646 C495.1417,863.8646 495.6667,864.3896 495.6667,865.0313 C495.6667,865.6729 495.1417,866.1979 494.5,866.1979 C493.8583,866.1979 493.3333,865.6729 493.3333,865.0313 C493.3333,864.3896 493.8583,863.8646 494.5,863.8646 " fill="#AAAAAA" style="stroke:;stroke-width:0.0;stroke-dasharray:;"/><text fill="#000000" font-family="sans-serif" font-size="14" lengthAdjust="spacing" textLength="96" x="501.8333" y="872.4551">mgrid: int &#171;FK&#187;</text><line style="stroke:#181818;stroke-width:0.5;" x1="481.5" x2="658.8333" y1="879.5313" y2="879.5313"/></g><!--class Suppliers--><g id="elem_Suppliers"><rect codeLine="23" fill="#F1F1F1" height="241.7031" id="Suppliers" rx="2.5" ry="2.5" style="stroke:#181818;stroke-width:0.5;" width="183.3333" x="734.5" y="619.5"/><ellipse cx="792.4167" cy="635.5" fill="#FFFFFF" rx="11" ry="11" style="stroke:#181818;stroke-width:1.0;"/><path d="M793.3385,632.8906 L793.3385,639.5469 L794.4948,639.5469 Q795.1042,639.5469 795.362,639.7813 Q795.6198,640.0156 795.6198,640.4063 Q795.6198,640.7813 795.362,641.0156 Q795.1042,641.25 794.4948,641.25 L790.5104,641.25 Q789.8854,641.25 789.6276,641.0156 Q789.3698,640.7813 789.3698,640.3906 Q789.3698,640.0156 789.6276,639.7813 Q789.8854,639.5469 790.5104,639.5469 L791.6354,639.5469 L791.6354,632.8906 L789.7917,632.8906 L789.7917,634.5 Q789.7917,635.1094 789.5573,635.375 Q789.3229,635.6406 788.9479,635.6406 Q788.5729,635.6406 788.3385,635.375 Q788.1042,635.1094 788.1042,634.5 L788.1042,631.1875 L796.9167,631.1875 L796.9167,634.5 Q796.9167,635.1094 796.6745,635.375 Q796.4323,635.6406 796.0573,635.6406 Q795.6823,635.6406 795.4479,635.375 Q795.2135,635.1094 795.2135,634.5 L795.2135,632.8906 L793.3385,632.8906 Z " fill="#000000"/><text fill="#000000" font-family="sans-serif" font-size="14" lengthAdjust="spacing" textLength="59" x="812.9167" y="641.2285">Suppliers</text><line style="stroke:#181818;stroke-width:0.5;" x1="735.5" x2="916.8333" y1="651.5" y2="651.5"/><path d="M747.9167,660.276 C746.3067,660.276 745,661.5827 745,663.1927 C745,663.3794 745,663.566 745.035,663.741 L741.5,667.276 L741.5,669.6094 L745,669.6094 L745,667.276 L747.3333,667.276 L747.3333,666.1094 L747.3683,666.0744 C747.5433,666.1094 747.73,666.1094 747.9167,666.1094 C749.5267,666.1094 750.8333,664.8027 750.8333,663.1927 C750.8333,661.5827 749.5267,660.276 747.9167,660.276 M748.5,661.4427 C749.1417,661.4427 749.6667,661.9677 749.6667,662.6094 C749.6667,663.251 749.1417,663.776 748.5,663.776 C747.8583,663.776 747.3333,663.251 747.3333,662.6094 C747.3333,661.9677 747.8583,661.4427 748.5,661.4427 " fill="#B8861B" style="stroke:;stroke-width:0.0;stroke-dasharray:;"/><text fill="#000000" font-family="sans-serif" font-size="14" font-weight="bold" lengthAdjust="spacing" textLength="71" x="755.8333" y="670.0332">supplierid</text><text fill="#000000" font-family="sans-serif" font-size="14" lengthAdjust="spacing" textLength="61" x="826.8333" y="670.0332">: int &#171;PK&#187;</text><path d="M745,677.8854 C743.0633,677.8854 741.5,679.4488 741.5,681.3854 C741.5,683.3221 743.0633,684.8854 745,684.8854 C746.9367,684.8854 748.5,683.3221 748.5,681.3854 C748.5,679.4488 746.9367,677.8854 745,677.8854 " fill="#EFEFEF" style="stroke:;stroke-width:0.0;stroke-dasharray:;"/><text fill="#000000" font-family="sans-serif" font-size="14" lengthAdjust="spacing" textLength="156" x="755.8333" y="687.6426">companyname: nvarchar</text><path d="M745,695.4948 C743.0633,695.4948 741.5,697.0581 741.5,698.9948 C741.5,700.9315 743.0633,702.4948 745,702.4948 C746.9367,702.4948 748.5,700.9315 748.5,698.9948 C748.5,697.0581 746.9367,695.4948 745,695.4948 " fill="#EFEFEF" style="stroke:;stroke-width:0.0;stroke-dasharray:;"/><text fill="#000000" font-family="sans-serif" font-size="14" lengthAdjust="spacing" textLength="145" x="755.8333" y="705.252">contactname: nvarchar</text><path d="M745,713.1042 C743.0633,713.1042 741.5,714.6675 741.5,716.6042 C741.5,718.5408 743.0633,720.1042 745,720.1042 C746.9367,720.1042 748.5,718.5408 748.5,716.6042 C748.5,714.6675 746.9367,713.1042 745,713.1042 " fill="#EFEFEF" style="stroke:;stroke-width:0.0;stroke-dasharray:;"/><text fill="#000000" font-family="sans-serif" font-size="14" lengthAdjust="spacing" textLength="132" x="755.8333" y="722.8613">contacttitle: nvarchar</text><path d="M745,730.7135 C743.0633,730.7135 741.5,732.2769 741.5,734.2135 C741.5,736.1502 743.0633,737.7135 745,737.7135 C746.9367,737.7135 748.5,736.1502 748.5,734.2135 C748.5,732.2769 746.9367,730.7135 745,730.7135 " fill="#EFEFEF" style="stroke:;stroke-width:0.0;stroke-dasharray:;"/><text fill="#000000" font-family="sans-serif" font-size="14" lengthAdjust="spacing" textLength="115" x="755.8333" y="740.4707">address: nvarchar</text><path d="M745,748.3229 C743.0633,748.3229 741.5,749.8863 741.5,751.8229 C741.5,753.7596 743.0633,755.3229 745,755.3229 C746.9367,755.3229 748.5,753.7596 748.5,751.8229 C748.5,749.8863 746.9367,748.3229 745,748.3229 " fill="#EFEFEF" style="stroke:;stroke-width:0.0;stroke-dasharray:;"/><text fill="#000000" font-family="sans-serif" font-size="14" lengthAdjust="spacing" textLength="85" x="755.8333" y="758.0801">city: nvarchar</text><path d="M745,765.9323 C743.0633,765.9323 741.5,767.4956 741.5,769.4323 C741.5,771.369 743.0633,772.9323 745,772.9323 C746.9367,772.9323 748.5,771.369 748.5,769.4323 C748.5,767.4956 746.9367,765.9323 745,765.9323 " fill="#EFEFEF" style="stroke:;stroke-width:0.0;stroke-dasharray:;"/><text fill="#000000" font-family="sans-serif" font-size="14" lengthAdjust="spacing" textLength="104" x="755.8333" y="775.6895">region: nvarchar</text><path d="M745,783.5417 C743.0633,783.5417 741.5,785.105 741.5,787.0417 C741.5,788.9783 743.0633,790.5417 745,790.5417 C746.9367,790.5417 748.5,788.9783 748.5,787.0417 C748.5,785.105 746.9367,783.5417 745,783.5417 " fill="#EFEFEF" style="stroke:;stroke-width:0.0;stroke-dasharray:;"/><text fill="#000000" font-family="sans-serif" font-size="14" lengthAdjust="spacing" textLength="133" x="755.8333" y="793.2988">postalcode: nvarchar</text><path d="M745,801.151 C743.0633,801.151 741.5,802.7144 741.5,804.651 C741.5,806.5877 743.0633,808.151 745,808.151 C746.9367,808.151 748.5,806.5877 748.5,804.651 C748.5,802.7144 746.9367,801.151 745,801.151 " fill="#EFEFEF" style="stroke:;stroke-width:0.0;stroke-dasharray:;"/><text fill="#000000" font-family="sans-serif" font-size="14" lengthAdjust="spacing" textLength="111" x="755.8333" y="810.9082">country: nvarchar</text><path d="M745,818.7604 C743.0633,818.7604 741.5,820.3238 741.5,822.2604 C741.5,824.1971 743.0633,825.7604 745,825.7604 C746.9367,825.7604 748.5,824.1971 748.5,822.2604 C748.5,820.3238 746.9367,818.7604 745,818.7604 " fill="#EFEFEF" style="stroke:;stroke-width:0.0;stroke-dasharray:;"/><text fill="#000000" font-family="sans-serif" font-size="14" lengthAdjust="spacing" textLength="104" x="755.8333" y="828.5176">phone: nvarchar</text><path d="M745,836.3698 C743.0633,836.3698 741.5,837.9331 741.5,839.8698 C741.5,841.8065 743.0633,843.3698 745,843.3698 C746.9367,843.3698 748.5,841.8065 748.5,839.8698 C748.5,837.9331 746.9367,836.3698 745,836.3698 " fill="#EFEFEF" style="stroke:;stroke-width:0.0;stroke-dasharray:;"/><text fill="#000000" font-family="sans-serif" font-size="14" lengthAdjust="spacing" textLength="82" x="755.8333" y="846.127">fax: nvarchar</text><line style="stroke:#181818;stroke-width:0.5;" x1="735.5" x2="916.8333" y1="853.2031" y2="853.2031"/></g><!--class Categories--><g id="elem_Categories"><rect codeLine="37" fill="#F1F1F1" height="100.8281" id="Categories" rx="2.5" ry="2.5" style="stroke:#181818;stroke-width:0.5;" width="181.3333" x="952.5" y="690"/><ellipse cx="1004.4167" cy="706" fill="#FFFFFF" rx="11" ry="11" style="stroke:#181818;stroke-width:1.0;"/><path d="M1005.3385,703.3906 L1005.3385,710.0469 L1006.4948,710.0469 Q1007.1042,710.0469 1007.362,710.2813 Q1007.6198,710.5156 1007.6198,710.9063 Q1007.6198,711.2813 1007.362,711.5156 Q1007.1042,711.75 1006.4948,711.75 L1002.5104,711.75 Q1001.8854,711.75 1001.6276,711.5156 Q1001.3698,711.2813 1001.3698,710.8906 Q1001.3698,710.5156 1001.6276,710.2813 Q1001.8854,710.0469 1002.5104,710.0469 L1003.6354,710.0469 L1003.6354,703.3906 L1001.7917,703.3906 L1001.7917,705 Q1001.7917,705.6094 1001.5573,705.875 Q1001.3229,706.1406 1000.9479,706.1406 Q1000.5729,706.1406 1000.3385,705.875 Q1000.1042,705.6094 1000.1042,705 L1000.1042,701.6875 L1008.9167,701.6875 L1008.9167,705 Q1008.9167,705.6094 1008.6745,705.875 Q1008.4323,706.1406 1008.0573,706.1406 Q1007.6823,706.1406 1007.4479,705.875 Q1007.2135,705.6094 1007.2135,705 L1007.2135,703.3906 L1005.3385,703.3906 Z " fill="#000000"/><text fill="#000000" font-family="sans-serif" font-size="14" lengthAdjust="spacing" textLength="69" x="1024.9167" y="711.7285">Categories</text><line style="stroke:#181818;stroke-width:0.5;" x1="953.5" x2="1132.8333" y1="722" y2="722"/><path d="M965.9167,730.776 C964.3067,730.776 963,732.0827 963,733.6927 C963,733.8794 963,734.066 963.035,734.241 L959.5,737.776 L959.5,740.1094 L963,740.1094 L963,737.776 L965.3333,737.776 L965.3333,736.6094 L965.3683,736.5744 C965.5433,736.6094 965.73,736.6094 965.9167,736.6094 C967.5267,736.6094 968.8333,735.3027 968.8333,733.6927 C968.8333,732.0827 967.5267,730.776 965.9167,730.776 M966.5,731.9427 C967.1417,731.9427 967.6667,732.4677 967.6667,733.1094 C967.6667,733.751 967.1417,734.276 966.5,734.276 C965.8583,734.276 965.3333,733.751 965.3333,733.1094 C965.3333,732.4677 965.8583,731.9427 966.5,731.9427 " fill="#B8861B" style="stroke:;stroke-width:0.0;stroke-dasharray:;"/><text fill="#000000" font-family="sans-serif" font-size="14" font-weight="bold" lengthAdjust="spacing" textLength="74" x="973.8333" y="740.5332">categoryid</text><text fill="#000000" font-family="sans-serif" font-size="14" lengthAdjust="spacing" textLength="61" x="1047.8333" y="740.5332">: int &#171;PK&#187;</text><path d="M963,748.3854 C961.0633,748.3854 959.5,749.9488 959.5,751.8854 C959.5,753.8221 961.0633,755.3854 963,755.3854 C964.9367,755.3854 966.5,753.8221 966.5,751.8854 C966.5,749.9488 964.9367,748.3854 963,748.3854 " fill="#EFEFEF" style="stroke:;stroke-width:0.0;stroke-dasharray:;"/><text fill="#000000" font-family="sans-serif" font-size="14" lengthAdjust="spacing" textLength="154" x="973.8333" y="758.1426">categoryname: nvarchar</text><path d="M963,765.9948 C961.0633,765.9948 959.5,767.5581 959.5,769.4948 C959.5,771.4315 961.0633,772.9948 963,772.9948 C964.9367,772.9948 966.5,771.4315 966.5,769.4948 C966.5,767.5581 964.9367,765.9948 963,765.9948 " fill="#EFEFEF" style="stroke:;stroke-width:0.0;stroke-dasharray:;"/><text fill="#000000" font-family="sans-serif" font-size="14" lengthAdjust="spacing" textLength="133" x="973.8333" y="775.752">description: nvarchar</text><line style="stroke:#181818;stroke-width:0.5;" x1="953.5" x2="1132.8333" y1="782.8281" y2="782.8281"/></g><!--class Products--><g id="elem_Products"><rect codeLine="43" fill="#F1F1F1" height="153.6563" id="Products" rx="2.5" ry="2.5" style="stroke:#181818;stroke-width:0.5;" width="174.3333" x="739" y="308.5"/><ellipse cx="793.9167" cy="324.5" fill="#FFFFFF" rx="11" ry="11" style="stroke:#181818;stroke-width:1.0;"/><path d="M794.8385,321.8906 L794.8385,328.5469 L795.9948,328.5469 Q796.6042,328.5469 796.862,328.7813 Q797.1198,329.0156 797.1198,329.4063 Q797.1198,329.7813 796.862,330.0156 Q796.6042,330.25 795.9948,330.25 L792.0104,330.25 Q791.3854,330.25 791.1276,330.0156 Q790.8698,329.7813 790.8698,329.3906 Q790.8698,329.0156 791.1276,328.7813 Q791.3854,328.5469 792.0104,328.5469 L793.1354,328.5469 L793.1354,321.8906 L791.2917,321.8906 L791.2917,323.5 Q791.2917,324.1094 791.0573,324.375 Q790.8229,324.6406 790.4479,324.6406 Q790.0729,324.6406 789.8385,324.375 Q789.6042,324.1094 789.6042,323.5 L789.6042,320.1875 L798.4167,320.1875 L798.4167,323.5 Q798.4167,324.1094 798.1745,324.375 Q797.9323,324.6406 797.5573,324.6406 Q797.1823,324.6406 796.9479,324.375 Q796.7135,324.1094 796.7135,323.5 L796.7135,321.8906 L794.8385,321.8906 Z " fill="#000000"/><text fill="#000000" font-family="sans-serif" font-size="14" lengthAdjust="spacing" textLength="56" x="814.4167" y="330.2285">Products</text><line style="stroke:#181818;stroke-width:0.5;" x1="740" x2="912.3333" y1="340.5" y2="340.5"/><path d="M752.4167,349.276 C750.8067,349.276 749.5,350.5827 749.5,352.1927 C749.5,352.3794 749.5,352.566 749.535,352.741 L746,356.276 L746,358.6094 L749.5,358.6094 L749.5,356.276 L751.8333,356.276 L751.8333,355.1094 L751.8683,355.0744 C752.0433,355.1094 752.23,355.1094 752.4167,355.1094 C754.0267,355.1094 755.3333,353.8027 755.3333,352.1927 C755.3333,350.5827 754.0267,349.276 752.4167,349.276 M753,350.4427 C753.6417,350.4427 754.1667,350.9677 754.1667,351.6094 C754.1667,352.251 753.6417,352.776 753,352.776 C752.3583,352.776 751.8333,352.251 751.8333,351.6094 C751.8333,350.9677 752.3583,350.4427 753,350.4427 " fill="#B8861B" style="stroke:;stroke-width:0.0;stroke-dasharray:;"/><text fill="#000000" font-family="sans-serif" font-size="14" font-weight="bold" lengthAdjust="spacing" textLength="68" x="760.3333" y="359.0332">productid</text><text fill="#000000" font-family="sans-serif" font-size="14" lengthAdjust="spacing" textLength="61" x="828.3333" y="359.0332">: int &#171;PK&#187;</text><path d="M749.5,366.8854 C747.5633,366.8854 746,368.4488 746,370.3854 C746,372.3221 747.5633,373.8854 749.5,373.8854 C751.4367,373.8854 753,372.3221 753,370.3854 C753,368.4488 751.4367,366.8854 749.5,366.8854 " fill="#EFEFEF" style="stroke:;stroke-width:0.0;stroke-dasharray:;"/><text fill="#000000" font-family="sans-serif" font-size="14" lengthAdjust="spacing" textLength="147" x="760.3333" y="376.6426">productname: nvarchar</text><path d="M752.4167,384.4948 C750.8067,384.4948 749.5,385.8015 749.5,387.4115 C749.5,387.5981 749.5,387.7848 749.535,387.9598 L746,391.4948 L746,393.8281 L749.5,393.8281 L749.5,391.4948 L751.8333,391.4948 L751.8333,390.3281 L751.8683,390.2931 C752.0433,390.3281 752.23,390.3281 752.4167,390.3281 C754.0267,390.3281 755.3333,389.0215 755.3333,387.4115 C755.3333,385.8015 754.0267,384.4948 752.4167,384.4948 M753,385.6615 C753.6417,385.6615 754.1667,386.1865 754.1667,386.8281 C754.1667,387.4698 753.6417,387.9948 753,387.9948 C752.3583,387.9948 751.8333,387.4698 751.8333,386.8281 C751.8333,386.1865 752.3583,385.6615 753,385.6615 " fill="#AAAAAA" style="stroke:;stroke-width:0.0;stroke-dasharray:;"/><text fill="#000000" font-family="sans-serif" font-size="14" lengthAdjust="spacing" textLength="122" x="760.3333" y="394.252">supplierid: int &#171;FK&#187;</text><path d="M752.4167,402.1042 C750.8067,402.1042 749.5,403.4108 749.5,405.0208 C749.5,405.2075 749.5,405.3942 749.535,405.5692 L746,409.1042 L746,411.4375 L749.5,411.4375 L749.5,409.1042 L751.8333,409.1042 L751.8333,407.9375 L751.8683,407.9025 C752.0433,407.9375 752.23,407.9375 752.4167,407.9375 C754.0267,407.9375 755.3333,406.6308 755.3333,405.0208 C755.3333,403.4108 754.0267,402.1042 752.4167,402.1042 M753,403.2708 C753.6417,403.2708 754.1667,403.7958 754.1667,404.4375 C754.1667,405.0792 753.6417,405.6042 753,405.6042 C752.3583,405.6042 751.8333,405.0792 751.8333,404.4375 C751.8333,403.7958 752.3583,403.2708 753,403.2708 " fill="#AAAAAA" style="stroke:;stroke-width:0.0;stroke-dasharray:;"/><text fill="#000000" font-family="sans-serif" font-size="14" lengthAdjust="spacing" textLength="127" x="760.3333" y="411.8613">categoryid: int &#171;FK&#187;</text><path d="M749.5,419.7135 C747.5633,419.7135 746,421.2769 746,423.2135 C746,425.1502 747.5633,426.7135 749.5,426.7135 C751.4367,426.7135 753,425.1502 753,423.2135 C753,421.2769 751.4367,419.7135 749.5,419.7135 " fill="#EFEFEF" style="stroke:;stroke-width:0.0;stroke-dasharray:;"/><text fill="#000000" font-family="sans-serif" font-size="14" lengthAdjust="spacing" textLength="104" x="760.3333" y="429.4707">unitprice: money</text><path d="M749.5,437.3229 C747.5633,437.3229 746,438.8862 746,440.8229 C746,442.7596 747.5633,444.3229 749.5,444.3229 C751.4367,444.3229 753,442.7596 753,440.8229 C753,438.8862 751.4367,437.3229 749.5,437.3229 " fill="#EFEFEF" style="stroke:;stroke-width:0.0;stroke-dasharray:;"/><text fill="#000000" font-family="sans-serif" font-size="14" lengthAdjust="spacing" textLength="103" x="760.3333" y="447.0801">discontinued: bit</text><line style="stroke:#181818;stroke-width:0.5;" x1="740" x2="912.3333" y1="454.1563" y2="454.1563"/></g><!--class Customers--><g id="elem_Customers"><rect codeLine="52" fill="#F1F1F1" height="241.7031" id="Customers" rx="2.5" ry="2.5" style="stroke:#181818;stroke-width:0.5;" width="183.3333" x="22.5" y="619.5"/><ellipse cx="75.9167" cy="635.5" fill="#FFFFFF" rx="11" ry="11" style="stroke:#181818;stroke-width:1.0;"/><path d="M76.8385,632.8906 L76.8385,639.5469 L77.9948,639.5469 Q78.6042,639.5469 78.862,639.7813 Q79.1198,640.0156 79.1198,640.4063 Q79.1198,640.7813 78.862,641.0156 Q78.6042,641.25 77.9948,641.25 L74.0104,641.25 Q73.3854,641.25 73.1276,641.0156 Q72.8698,640.7813 72.8698,640.3906 Q72.8698,640.0156 73.1276,639.7813 Q73.3854,639.5469 74.0104,639.5469 L75.1354,639.5469 L75.1354,632.8906 L73.2917,632.8906 L73.2917,634.5 Q73.2917,635.1094 73.0573,635.375 Q72.8229,635.6406 72.4479,635.6406 Q72.0729,635.6406 71.8385,635.375 Q71.6042,635.1094 71.6042,634.5 L71.6042,631.1875 L80.4167,631.1875 L80.4167,634.5 Q80.4167,635.1094 80.1745,635.375 Q79.9323,635.6406 79.5573,635.6406 Q79.1823,635.6406 78.9479,635.375 Q78.7135,635.1094 78.7135,634.5 L78.7135,632.8906 L76.8385,632.8906 Z " fill="#000000"/><text fill="#000000" font-family="sans-serif" font-size="14" lengthAdjust="spacing" textLength="68" x="96.4167" y="641.2285">Customers</text><line style="stroke:#181818;stroke-width:0.5;" x1="23.5" x2="204.8333" y1="651.5" y2="651.5"/><path d="M35.9167,660.276 C34.3067,660.276 33,661.5827 33,663.1927 C33,663.3794 33,663.566 33.035,663.741 L29.5,667.276 L29.5,669.6094 L33,669.6094 L33,667.276 L35.3333,667.276 L35.3333,666.1094 L35.3683,666.0744 C35.5433,666.1094 35.73,666.1094 35.9167,666.1094 C37.5267,666.1094 38.8333,664.8027 38.8333,663.1927 C38.8333,661.5827 37.5267,660.276 35.9167,660.276 M36.5,661.4427 C37.1417,661.4427 37.6667,661.9677 37.6667,662.6094 C37.6667,663.251 37.1417,663.776 36.5,663.776 C35.8583,663.776 35.3333,663.251 35.3333,662.6094 C35.3333,661.9677 35.8583,661.4427 36.5,661.4427 " fill="#B8861B" style="stroke:;stroke-width:0.0;stroke-dasharray:;"/><text fill="#000000" font-family="sans-serif" font-size="14" font-weight="bold" lengthAdjust="spacing" textLength="43" x="43.8333" y="670.0332">custid</text><text fill="#000000" font-family="sans-serif" font-size="14" lengthAdjust="spacing" textLength="61" x="86.8333" y="670.0332">: int &#171;PK&#187;</text><path d="M33,677.8854 C31.0633,677.8854 29.5,679.4488 29.5,681.3854 C29.5,683.3221 31.0633,684.8854 33,684.8854 C34.9367,684.8854 36.5,683.3221 36.5,681.3854 C36.5,679.4488 34.9367,677.8854 33,677.8854 " fill="#EFEFEF" style="stroke:;stroke-width:0.0;stroke-dasharray:;"/><text fill="#000000" font-family="sans-serif" font-size="14" lengthAdjust="spacing" textLength="156" x="43.8333" y="687.6426">companyname: nvarchar</text><path d="M33,695.4948 C31.0633,695.4948 29.5,697.0581 29.5,698.9948 C29.5,700.9315 31.0633,702.4948 33,702.4948 C34.9367,702.4948 36.5,700.9315 36.5,698.9948 C36.5,697.0581 34.9367,695.4948 33,695.4948 " fill="#EFEFEF" style="stroke:;stroke-width:0.0;stroke-dasharray:;"/><text fill="#000000" font-family="sans-serif" font-size="14" lengthAdjust="spacing" textLength="145" x="43.8333" y="705.252">contactname: nvarchar</text><path d="M33,713.1042 C31.0633,713.1042 29.5,714.6675 29.5,716.6042 C29.5,718.5408 31.0633,720.1042 33,720.1042 C34.9367,720.1042 36.5,718.5408 36.5,716.6042 C36.5,714.6675 34.9367,713.1042 33,713.1042 " fill="#EFEFEF" style="stroke:;stroke-width:0.0;stroke-dasharray:;"/><text fill="#000000" font-family="sans-serif" font-size="14" lengthAdjust="spacing" textLength="132" x="43.8333" y="722.8613">contacttitle: nvarchar</text><path d="M33,730.7135 C31.0633,730.7135 29.5,732.2769 29.5,734.2135 C29.5,736.1502 31.0633,737.7135 33,737.7135 C34.9367,737.7135 36.5,736.1502 36.5,734.2135 C36.5,732.2769 34.9367,730.7135 33,730.7135 " fill="#EFEFEF" style="stroke:;stroke-width:0.0;stroke-dasharray:;"/><text fill="#000000" font-family="sans-serif" font-size="14" lengthAdjust="spacing" textLength="115" x="43.8333" y="740.4707">address: nvarchar</text><path d="M33,748.3229 C31.0633,748.3229 29.5,749.8863 29.5,751.8229 C29.5,753.7596 31.0633,755.3229 33,755.3229 C34.9367,755.3229 36.5,753.7596 36.5,751.8229 C36.5,749.8863 34.9367,748.3229 33,748.3229 " fill="#EFEFEF" style="stroke:;stroke-width:0.0;stroke-dasharray:;"/><text fill="#000000" font-family="sans-serif" font-size="14" lengthAdjust="spacing" textLength="85" x="43.8333" y="758.0801">city: nvarchar</text><path d="M33,765.9323 C31.0633,765.9323 29.5,767.4956 29.5,769.4323 C29.5,771.369 31.0633,772.9323 33,772.9323 C34.9367,772.9323 36.5,771.369 36.5,769.4323 C36.5,767.4956 34.9367,765.9323 33,765.9323 " fill="#EFEFEF" style="stroke:;stroke-width:0.0;stroke-dasharray:;"/><text fill="#000000" font-family="sans-serif" font-size="14" lengthAdjust="spacing" textLength="104" x="43.8333" y="775.6895">region: nvarchar</text><path d="M33,783.5417 C31.0633,783.5417 29.5,785.105 29.5,787.0417 C29.5,788.9783 31.0633,790.5417 33,790.5417 C34.9367,790.5417 36.5,788.9783 36.5,787.0417 C36.5,785.105 34.9367,783.5417 33,783.5417 " fill="#EFEFEF" style="stroke:;stroke-width:0.0;stroke-dasharray:;"/><text fill="#000000" font-family="sans-serif" font-size="14" lengthAdjust="spacing" textLength="133" x="43.8333" y="793.2988">postalcode: nvarchar</text><path d="M33,801.151 C31.0633,801.151 29.5,802.7144 29.5,804.651 C29.5,806.5877 31.0633,808.151 33,808.151 C34.9367,808.151 36.5,806.5877 36.5,804.651 C36.5,802.7144 34.9367,801.151 33,801.151 " fill="#EFEFEF" style="stroke:;stroke-width:0.0;stroke-dasharray:;"/><text fill="#000000" font-family="sans-serif" font-size="14" lengthAdjust="spacing" textLength="111" x="43.8333" y="810.9082">country: nvarchar</text><path d="M33,818.7604 C31.0633,818.7604 29.5,820.3238 29.5,822.2604 C29.5,824.1971 31.0633,825.7604 33,825.7604 C34.9367,825.7604 36.5,824.1971 36.5,822.2604 C36.5,820.3238 34.9367,818.7604 33,818.7604 " fill="#EFEFEF" style="stroke:;stroke-width:0.0;stroke-dasharray:;"/><text fill="#000000" font-family="sans-serif" font-size="14" lengthAdjust="spacing" textLength="104" x="43.8333" y="828.5176">phone: nvarchar</text><path d="M33,836.3698 C31.0633,836.3698 29.5,837.9331 29.5,839.8698 C29.5,841.8065 31.0633,843.3698 33,843.3698 C34.9367,843.3698 36.5,841.8065 36.5,839.8698 C36.5,837.9331 34.9367,836.3698 33,836.3698 " fill="#EFEFEF" style="stroke:;stroke-width:0.0;stroke-dasharray:;"/><text fill="#000000" font-family="sans-serif" font-size="14" lengthAdjust="spacing" textLength="82" x="43.8333" y="846.127">fax: nvarchar</text><line style="stroke:#181818;stroke-width:0.5;" x1="23.5" x2="204.8333" y1="853.2031" y2="853.2031"/></g><!--class Shippers--><g id="elem_Shippers"><rect codeLine="66" fill="#F1F1F1" height="100.8281" id="Shippers" rx="2.5" ry="2.5" style="stroke:#181818;stroke-width:0.5;" width="183.3333" x="240.5" y="690"/><ellipse cx="299.9167" cy="706" fill="#FFFFFF" rx="11" ry="11" style="stroke:#181818;stroke-width:1.0;"/><path d="M300.8385,703.3906 L300.8385,710.0469 L301.9948,710.0469 Q302.6042,710.0469 302.862,710.2813 Q303.1198,710.5156 303.1198,710.9063 Q303.1198,711.2813 302.862,711.5156 Q302.6042,711.75 301.9948,711.75 L298.0104,711.75 Q297.3854,711.75 297.1276,711.5156 Q296.8698,711.2813 296.8698,710.8906 Q296.8698,710.5156 297.1276,710.2813 Q297.3854,710.0469 298.0104,710.0469 L299.1354,710.0469 L299.1354,703.3906 L297.2917,703.3906 L297.2917,705 Q297.2917,705.6094 297.0573,705.875 Q296.8229,706.1406 296.4479,706.1406 Q296.0729,706.1406 295.8385,705.875 Q295.6042,705.6094 295.6042,705 L295.6042,701.6875 L304.4167,701.6875 L304.4167,705 Q304.4167,705.6094 304.1745,705.875 Q303.9323,706.1406 303.5573,706.1406 Q303.1823,706.1406 302.9479,705.875 Q302.7135,705.6094 302.7135,705 L302.7135,703.3906 L300.8385,703.3906 Z " fill="#000000"/><text fill="#000000" font-family="sans-serif" font-size="14" lengthAdjust="spacing" textLength="56" x="320.4167" y="711.7285">Shippers</text><line style="stroke:#181818;stroke-width:0.5;" x1="241.5" x2="422.8333" y1="722" y2="722"/><path d="M253.9167,730.776 C252.3067,730.776 251,732.0827 251,733.6927 C251,733.8794 251,734.066 251.035,734.241 L247.5,737.776 L247.5,740.1094 L251,740.1094 L251,737.776 L253.3333,737.776 L253.3333,736.6094 L253.3683,736.5744 C253.5433,736.6094 253.73,736.6094 253.9167,736.6094 C255.5267,736.6094 256.8333,735.3027 256.8333,733.6927 C256.8333,732.0827 255.5267,730.776 253.9167,730.776 M254.5,731.9427 C255.1417,731.9427 255.6667,732.4677 255.6667,733.1094 C255.6667,733.751 255.1417,734.276 254.5,734.276 C253.8583,734.276 253.3333,733.751 253.3333,733.1094 C253.3333,732.4677 253.8583,731.9427 254.5,731.9427 " fill="#B8861B" style="stroke:;stroke-width:0.0;stroke-dasharray:;"/><text fill="#000000" font-family="sans-serif" font-size="14" font-weight="bold" lengthAdjust="spacing" textLength="67" x="261.8333" y="740.5332">shipperid</text><text fill="#000000" font-family="sans-serif" font-size="14" lengthAdjust="spacing" textLength="61" x="328.8333" y="740.5332">: int &#171;PK&#187;</text><path d="M251,748.3854 C249.0633,748.3854 247.5,749.9488 247.5,751.8854 C247.5,753.8221 249.0633,755.3854 251,755.3854 C252.9367,755.3854 254.5,753.8221 254.5,751.8854 C254.5,749.9488 252.9367,748.3854 251,748.3854 " fill="#EFEFEF" style="stroke:;stroke-width:0.0;stroke-dasharray:;"/><text fill="#000000" font-family="sans-serif" font-size="14" lengthAdjust="spacing" textLength="156" x="261.8333" y="758.1426">companyname: nvarchar</text><path d="M251,765.9948 C249.0633,765.9948 247.5,767.5581 247.5,769.4948 C247.5,771.4315 249.0633,772.9948 251,772.9948 C252.9367,772.9948 254.5,771.4315 254.5,769.4948 C254.5,767.5581 252.9367,765.9948 251,765.9948 " fill="#EFEFEF" style="stroke:;stroke-width:0.0;stroke-dasharray:;"/><text fill="#000000" font-family="sans-serif" font-size="14" lengthAdjust="spacing" textLength="104" x="261.8333" y="775.752">phone: nvarchar</text><line style="stroke:#181818;stroke-width:0.5;" x1="241.5" x2="422.8333" y1="782.8281" y2="782.8281"/></g><!--class Orders--><g id="elem_Orders"><rect codeLine="72" fill="#F1F1F1" height="294.5313" id="Orders" rx="2.5" ry="2.5" style="stroke:#181818;stroke-width:0.5;" width="186.3333" x="238" y="238"/><ellipse cx="304.9167" cy="254" fill="#FFFFFF" rx="11" ry="11" style="stroke:#181818;stroke-width:1.0;"/><path d="M305.8385,251.3906 L305.8385,258.0469 L306.9948,258.0469 Q307.6042,258.0469 307.862,258.2813 Q308.1198,258.5156 308.1198,258.9063 Q308.1198,259.2813 307.862,259.5156 Q307.6042,259.75 306.9948,259.75 L303.0104,259.75 Q302.3854,259.75 302.1276,259.5156 Q301.8698,259.2813 301.8698,258.8906 Q301.8698,258.5156 302.1276,258.2813 Q302.3854,258.0469 303.0104,258.0469 L304.1354,258.0469 L304.1354,251.3906 L302.2917,251.3906 L302.2917,253 Q302.2917,253.6094 302.0573,253.875 Q301.8229,254.1406 301.4479,254.1406 Q301.0729,254.1406 300.8385,253.875 Q300.6042,253.6094 300.6042,253 L300.6042,249.6875 L309.4167,249.6875 L309.4167,253 Q309.4167,253.6094 309.1745,253.875 Q308.9323,254.1406 308.5573,254.1406 Q308.1823,254.1406 307.9479,253.875 Q307.7135,253.6094 307.7135,253 L307.7135,251.3906 L305.8385,251.3906 Z " fill="#000000"/><text fill="#000000" font-family="sans-serif" font-size="14" lengthAdjust="spacing" textLength="44" x="325.4167" y="259.7285">Orders</text><line style="stroke:#181818;stroke-width:0.5;" x1="239" x2="423.3333" y1="270" y2="270"/><path d="M251.4167,278.776 C249.8067,278.776 248.5,280.0827 248.5,281.6927 C248.5,281.8794 248.5,282.066 248.535,282.241 L245,285.776 L245,288.1094 L248.5,288.1094 L248.5,285.776 L250.8333,285.776 L250.8333,284.6094 L250.8683,284.5744 C251.0433,284.6094 251.23,284.6094 251.4167,284.6094 C253.0267,284.6094 254.3333,283.3027 254.3333,281.6927 C254.3333,280.0827 253.0267,278.776 251.4167,278.776 M252,279.9427 C252.6417,279.9427 253.1667,280.4677 253.1667,281.1094 C253.1667,281.751 252.6417,282.276 252,282.276 C251.3583,282.276 250.8333,281.751 250.8333,281.1094 C250.8333,280.4677 251.3583,279.9427 252,279.9427 " fill="#B8861B" style="stroke:;stroke-width:0.0;stroke-dasharray:;"/><text fill="#000000" font-family="sans-serif" font-size="14" font-weight="bold" lengthAdjust="spacing" textLength="52" x="259.3333" y="288.5332">orderid</text><text fill="#000000" font-family="sans-serif" font-size="14" lengthAdjust="spacing" textLength="61" x="311.3333" y="288.5332">: int &#171;PK&#187;</text><path d="M251.4167,296.3854 C249.8067,296.3854 248.5,297.6921 248.5,299.3021 C248.5,299.4888 248.5,299.6754 248.535,299.8504 L245,303.3854 L245,305.7188 L248.5,305.7188 L248.5,303.3854 L250.8333,303.3854 L250.8333,302.2188 L250.8683,302.1838 C251.0433,302.2188 251.23,302.2188 251.4167,302.2188 C253.0267,302.2188 254.3333,300.9121 254.3333,299.3021 C254.3333,297.6921 253.0267,296.3854 251.4167,296.3854 M252,297.5521 C252.6417,297.5521 253.1667,298.0771 253.1667,298.7188 C253.1667,299.3604 252.6417,299.8854 252,299.8854 C251.3583,299.8854 250.8333,299.3604 250.8333,298.7188 C250.8333,298.0771 251.3583,297.5521 252,297.5521 " fill="#AAAAAA" style="stroke:;stroke-width:0.0;stroke-dasharray:;"/><text fill="#000000" font-family="sans-serif" font-size="14" lengthAdjust="spacing" textLength="98" x="259.3333" y="306.1426">custid: int &#171;FK&#187;</text><path d="M251.4167,313.9948 C249.8067,313.9948 248.5,315.3015 248.5,316.9115 C248.5,317.0981 248.5,317.2848 248.535,317.4598 L245,320.9948 L245,323.3281 L248.5,323.3281 L248.5,320.9948 L250.8333,320.9948 L250.8333,319.8281 L250.8683,319.7931 C251.0433,319.8281 251.23,319.8281 251.4167,319.8281 C253.0267,319.8281 254.3333,318.5215 254.3333,316.9115 C254.3333,315.3015 253.0267,313.9948 251.4167,313.9948 M252,315.1615 C252.6417,315.1615 253.1667,315.6865 253.1667,316.3281 C253.1667,316.9698 252.6417,317.4948 252,317.4948 C251.3583,317.4948 250.8333,316.9698 250.8333,316.3281 C250.8333,315.6865 251.3583,315.1615 252,315.1615 " fill="#AAAAAA" style="stroke:;stroke-width:0.0;stroke-dasharray:;"/><text fill="#000000" font-family="sans-serif" font-size="14" lengthAdjust="spacing" textLength="99" x="259.3333" y="323.752">empid: int &#171;FK&#187;</text><path d="M248.5,331.6042 C246.5633,331.6042 245,333.1675 245,335.1042 C245,337.0408 246.5633,338.6042 248.5,338.6042 C250.4367,338.6042 252,337.0408 252,335.1042 C252,333.1675 250.4367,331.6042 248.5,331.6042 " fill="#EFEFEF" style="stroke:;stroke-width:0.0;stroke-dasharray:;"/><text fill="#000000" font-family="sans-serif" font-size="14" lengthAdjust="spacing" textLength="98" x="259.3333" y="341.3613">orderdate: date</text><path d="M248.5,349.2135 C246.5633,349.2135 245,350.7769 245,352.7135 C245,354.6502 246.5633,356.2135 248.5,356.2135 C250.4367,356.2135 252,354.6502 252,352.7135 C252,350.7769 250.4367,349.2135 248.5,349.2135 " fill="#EFEFEF" style="stroke:;stroke-width:0.0;stroke-dasharray:;"/><text fill="#000000" font-family="sans-serif" font-size="14" lengthAdjust="spacing" textLength="117" x="259.3333" y="358.9707">requireddate: date</text><path d="M248.5,366.8229 C246.5633,366.8229 245,368.3862 245,370.3229 C245,372.2596 246.5633,373.8229 248.5,373.8229 C250.4367,373.8229 252,372.2596 252,370.3229 C252,368.3862 250.4367,366.8229 248.5,366.8229 " fill="#EFEFEF" style="stroke:;stroke-width:0.0;stroke-dasharray:;"/><text fill="#000000" font-family="sans-serif" font-size="14" lengthAdjust="spacing" textLength="114" x="259.3333" y="376.5801">shippeddate: date</text><path d="M251.4167,384.4323 C249.8067,384.4323 248.5,385.739 248.5,387.349 C248.5,387.5356 248.5,387.7223 248.535,387.8973 L245,391.4323 L245,393.7656 L248.5,393.7656 L248.5,391.4323 L250.8333,391.4323 L250.8333,390.2656 L250.8683,390.2306 C251.0433,390.2656 251.23,390.2656 251.4167,390.2656 C253.0267,390.2656 254.3333,388.959 254.3333,387.349 C254.3333,385.739 253.0267,384.4323 251.4167,384.4323 M252,385.599 C252.6417,385.599 253.1667,386.124 253.1667,386.7656 C253.1667,387.4073 252.6417,387.9323 252,387.9323 C251.3583,387.9323 250.8333,387.4073 250.8333,386.7656 C250.8333,386.124 251.3583,385.599 252,385.599 " fill="#AAAAAA" style="stroke:;stroke-width:0.0;stroke-dasharray:;"/><text fill="#000000" font-family="sans-serif" font-size="14" lengthAdjust="spacing" textLength="119" x="259.3333" y="394.1895">shipperid: int &#171;FK&#187;</text><path d="M248.5,402.0417 C246.5633,402.0417 245,403.605 245,405.5417 C245,407.4783 246.5633,409.0417 248.5,409.0417 C250.4367,409.0417 252,407.4783 252,405.5417 C252,403.605 250.4367,402.0417 248.5,402.0417 " fill="#EFEFEF" style="stroke:;stroke-width:0.0;stroke-dasharray:;"/><text fill="#000000" font-family="sans-serif" font-size="14" lengthAdjust="spacing" textLength="90" x="259.3333" y="411.7988">freight: money</text><path d="M248.5,419.651 C246.5633,419.651 245,421.2144 245,423.151 C245,425.0877 246.5633,426.651 248.5,426.651 C250.4367,426.651 252,425.0877 252,423.151 C252,421.2144 250.4367,419.651 248.5,419.651 " fill="#EFEFEF" style="stroke:;stroke-width:0.0;stroke-dasharray:;"/><text fill="#000000" font-family="sans-serif" font-size="14" lengthAdjust="spacing" textLength="125" x="259.3333" y="429.4082">shipname: nvarchar</text><path d="M248.5,437.2604 C246.5633,437.2604 245,438.8237 245,440.7604 C245,442.6971 246.5633,444.2604 248.5,444.2604 C250.4367,444.2604 252,442.6971 252,440.7604 C252,438.8237 250.4367,437.2604 248.5,437.2604 " fill="#EFEFEF" style="stroke:;stroke-width:0.0;stroke-dasharray:;"/><text fill="#000000" font-family="sans-serif" font-size="14" lengthAdjust="spacing" textLength="141" x="259.3333" y="447.0176">shipaddress: nvarchar</text><path d="M248.5,454.8698 C246.5633,454.8698 245,456.4331 245,458.3698 C245,460.3065 246.5633,461.8698 248.5,461.8698 C250.4367,461.8698 252,460.3065 252,458.3698 C252,456.4331 250.4367,454.8698 248.5,454.8698 " fill="#EFEFEF" style="stroke:;stroke-width:0.0;stroke-dasharray:;"/><text fill="#000000" font-family="sans-serif" font-size="14" lengthAdjust="spacing" textLength="111" x="259.3333" y="464.627">shipcity: nvarchar</text><path d="M248.5,472.4792 C246.5633,472.4792 245,474.0425 245,475.9792 C245,477.9158 246.5633,479.4792 248.5,479.4792 C250.4367,479.4792 252,477.9158 252,475.9792 C252,474.0425 250.4367,472.4792 248.5,472.4792 " fill="#EFEFEF" style="stroke:;stroke-width:0.0;stroke-dasharray:;"/><text fill="#000000" font-family="sans-serif" font-size="14" lengthAdjust="spacing" textLength="130" x="259.3333" y="482.2363">shipregion: nvarchar</text><path d="M248.5,490.0885 C246.5633,490.0885 245,491.6519 245,493.5885 C245,495.5252 246.5633,497.0885 248.5,497.0885 C250.4367,497.0885 252,495.5252 252,493.5885 C252,491.6519 250.4367,490.0885 248.5,490.0885 " fill="#EFEFEF" style="stroke:;stroke-width:0.0;stroke-dasharray:;"/><text fill="#000000" font-family="sans-serif" font-size="14" lengthAdjust="spacing" textLength="159" x="259.3333" y="499.8457">shippostalcode: nvarchar</text><path d="M248.5,507.6979 C246.5633,507.6979 245,509.2613 245,511.1979 C245,513.1346 246.5633,514.6979 248.5,514.6979 C250.4367,514.6979 252,513.1346 252,511.1979 C252,509.2613 250.4367,507.6979 248.5,507.6979 " fill="#EFEFEF" style="stroke:;stroke-width:0.0;stroke-dasharray:;"/><text fill="#000000" font-family="sans-serif" font-size="14" lengthAdjust="spacing" textLength="137" x="259.3333" y="517.4551">shipcountry: nvarchar</text><line style="stroke:#181818;stroke-width:0.5;" x1="239" x2="423.3333" y1="524.5313" y2="524.5313"/></g><!--class OrderDetails--><g id="elem_OrderDetails"><rect codeLine="89" fill="#F1F1F1" height="136.0469" id="OrderDetails" rx="2.5" ry="2.5" style="stroke:#181818;stroke-width:0.5;" width="156.3333" x="260" y="42"/><ellipse cx="294.95" cy="58" fill="#FFFFFF" rx="11" ry="11" style="stroke:#181818;stroke-width:1.0;"/><path d="M295.8719,55.3906 L295.8719,62.0469 L297.0281,62.0469 Q297.6375,62.0469 297.8953,62.2813 Q298.1531,62.5156 298.1531,62.9063 Q298.1531,63.2813 297.8953,63.5156 Q297.6375,63.75 297.0281,63.75 L293.0438,63.75 Q292.4188,63.75 292.1609,63.5156 Q291.9031,63.2813 291.9031,62.8906 Q291.9031,62.5156 292.1609,62.2813 Q292.4188,62.0469 293.0438,62.0469 L294.1688,62.0469 L294.1688,55.3906 L292.325,55.3906 L292.325,57 Q292.325,57.6094 292.0906,57.875 Q291.8563,58.1406 291.4813,58.1406 Q291.1063,58.1406 290.8719,57.875 Q290.6375,57.6094 290.6375,57 L290.6375,53.6875 L299.45,53.6875 L299.45,57 Q299.45,57.6094 299.2078,57.875 Q298.9656,58.1406 298.5906,58.1406 Q298.2156,58.1406 297.9813,57.875 Q297.7469,57.6094 297.7469,57 L297.7469,55.3906 L295.8719,55.3906 Z " fill="#000000"/><text fill="#000000" font-family="sans-serif" font-size="14" lengthAdjust="spacing" textLength="80" x="313.3833" y="63.7285">OrderDetails</text><line style="stroke:#181818;stroke-width:0.5;" x1="261" x2="415.3333" y1="74" y2="74"/><path d="M273.4167,82.776 C271.8067,82.776 270.5,84.0827 270.5,85.6927 C270.5,85.8794 270.5,86.066 270.535,86.241 L267,89.776 L267,92.1094 L270.5,92.1094 L270.5,89.776 L272.8333,89.776 L272.8333,88.6094 L272.8683,88.5744 C273.0433,88.6094 273.23,88.6094 273.4167,88.6094 C275.0267,88.6094 276.3333,87.3027 276.3333,85.6927 C276.3333,84.0827 275.0267,82.776 273.4167,82.776 M274,83.9427 C274.6417,83.9427 275.1667,84.4677 275.1667,85.1094 C275.1667,85.751 274.6417,86.276 274,86.276 C273.3583,86.276 272.8333,85.751 272.8333,85.1094 C272.8333,84.4677 273.3583,83.9427 274,83.9427 " fill="#B8861B" style="stroke:;stroke-width:0.0;stroke-dasharray:;"/><text fill="#000000" font-family="sans-serif" font-size="14" font-weight="bold" lengthAdjust="spacing" textLength="52" x="281.3333" y="92.5332">orderid</text><text fill="#000000" font-family="sans-serif" font-size="14" lengthAdjust="spacing" textLength="61" x="333.3333" y="92.5332">: int &#171;PK&#187;</text><path d="M273.4167,100.3854 C271.8067,100.3854 270.5,101.6921 270.5,103.3021 C270.5,103.4888 270.5,103.6754 270.535,103.8504 L267,107.3854 L267,109.7187 L270.5,109.7187 L270.5,107.3854 L272.8333,107.3854 L272.8333,106.2187 L272.8683,106.1837 C273.0433,106.2187 273.23,106.2187 273.4167,106.2187 C275.0267,106.2187 276.3333,104.9121 276.3333,103.3021 C276.3333,101.6921 275.0267,100.3854 273.4167,100.3854 M274,101.5521 C274.6417,101.5521 275.1667,102.0771 275.1667,102.7187 C275.1667,103.3604 274.6417,103.8854 274,103.8854 C273.3583,103.8854 272.8333,103.3604 272.8333,102.7187 C272.8333,102.0771 273.3583,101.5521 274,101.5521 " fill="#B8861B" style="stroke:;stroke-width:0.0;stroke-dasharray:;"/><text fill="#000000" font-family="sans-serif" font-size="14" font-weight="bold" lengthAdjust="spacing" textLength="68" x="281.3333" y="110.1426">productid</text><text fill="#000000" font-family="sans-serif" font-size="14" lengthAdjust="spacing" textLength="61" x="349.3333" y="110.1426">: int &#171;PK&#187;</text><path d="M270.5,117.9948 C268.5633,117.9948 267,119.5581 267,121.4948 C267,123.4315 268.5633,124.9948 270.5,124.9948 C272.4367,124.9948 274,123.4315 274,121.4948 C274,119.5581 272.4367,117.9948 270.5,117.9948 " fill="#EFEFEF" style="stroke:;stroke-width:0.0;stroke-dasharray:;"/><text fill="#000000" font-family="sans-serif" font-size="14" lengthAdjust="spacing" textLength="104" x="281.3333" y="127.752">unitprice: money</text><path d="M270.5,135.6042 C268.5633,135.6042 267,137.1675 267,139.1042 C267,141.0408 268.5633,142.6042 270.5,142.6042 C272.4367,142.6042 274,141.0408 274,139.1042 C274,137.1675 272.4367,135.6042 270.5,135.6042 " fill="#EFEFEF" style="stroke:;stroke-width:0.0;stroke-dasharray:;"/><text fill="#000000" font-family="sans-serif" font-size="14" lengthAdjust="spacing" textLength="74" x="281.3333" y="145.3613">qty: smallint</text><path d="M270.5,153.2135 C268.5633,153.2135 267,154.7769 267,156.7135 C267,158.6502 268.5633,160.2135 270.5,160.2135 C272.4367,160.2135 274,158.6502 274,156.7135 C274,154.7769 272.4367,153.2135 270.5,153.2135 " fill="#EFEFEF" style="stroke:;stroke-width:0.0;stroke-dasharray:;"/><text fill="#000000" font-family="sans-serif" font-size="14" lengthAdjust="spacing" textLength="111" x="281.3333" y="162.9707">discount: numeric</text><line style="stroke:#181818;stroke-width:0.5;" x1="261" x2="415.3333" y1="170.0469" y2="170.0469"/></g><!--class Tests--><g id="elem_Tests"><rect codeLine="97" fill="#F1F1F1" height="65.6094" id="Tests" rx="2.5" ry="2.5" style="stroke:#181818;stroke-width:0.5;" width="161.3333" x="1203.5" y="352.5"/><ellipse cx="1262.4167" cy="368.5" fill="#FFFFFF" rx="11" ry="11" style="stroke:#181818;stroke-width:1.0;"/><path d="M1263.3385,365.8906 L1263.3385,372.5469 L1264.4948,372.5469 Q1265.1042,372.5469 1265.362,372.7813 Q1265.6198,373.0156 1265.6198,373.4063 Q1265.6198,373.7813 1265.362,374.0156 Q1265.1042,374.25 1264.4948,374.25 L1260.5104,374.25 Q1259.8854,374.25 1259.6276,374.0156 Q1259.3698,373.7813 1259.3698,373.3906 Q1259.3698,373.0156 1259.6276,372.7813 Q1259.8854,372.5469 1260.5104,372.5469 L1261.6354,372.5469 L1261.6354,365.8906 L1259.7917,365.8906 L1259.7917,367.5 Q1259.7917,368.1094 1259.5573,368.375 Q1259.3229,368.6406 1258.9479,368.6406 Q1258.5729,368.6406 1258.3385,368.375 Q1258.1042,368.1094 1258.1042,367.5 L1258.1042,364.1875 L1266.9167,364.1875 L1266.9167,367.5 Q1266.9167,368.1094 1266.6745,368.375 Q1266.4323,368.6406 1266.0573,368.6406 Q1265.6823,368.6406 1265.4479,368.375 Q1265.2135,368.1094 1265.2135,367.5 L1265.2135,365.8906 L1263.3385,365.8906 Z " fill="#000000"/><text fill="#000000" font-family="sans-serif" font-size="14" lengthAdjust="spacing" textLength="35" x="1282.9167" y="374.2285">Tests</text><line style="stroke:#181818;stroke-width:0.5;" x1="1204.5" x2="1363.8333" y1="384.5" y2="384.5"/><path d="M1216.9167,393.276 C1215.3067,393.276 1214,394.5827 1214,396.1927 C1214,396.3794 1214,396.566 1214.035,396.741 L1210.5,400.276 L1210.5,402.6094 L1214,402.6094 L1214,400.276 L1216.3333,400.276 L1216.3333,399.1094 L1216.3683,399.0744 C1216.5433,399.1094 1216.73,399.1094 1216.9167,399.1094 C1218.5267,399.1094 1219.8333,397.8027 1219.8333,396.1927 C1219.8333,394.5827 1218.5267,393.276 1216.9167,393.276 M1217.5,394.4427 C1218.1417,394.4427 1218.6667,394.9677 1218.6667,395.6094 C1218.6667,396.251 1218.1417,396.776 1217.5,396.776 C1216.8583,396.776 1216.3333,396.251 1216.3333,395.6094 C1216.3333,394.9677 1216.8583,394.4427 1217.5,394.4427 " fill="#B8861B" style="stroke:;stroke-width:0.0;stroke-dasharray:;"/><text fill="#000000" font-family="sans-serif" font-size="14" font-weight="bold" lengthAdjust="spacing" textLength="40" x="1224.8333" y="403.0332">testid</text><text fill="#000000" font-family="sans-serif" font-size="14" lengthAdjust="spacing" textLength="94" x="1264.8333" y="403.0332">: varchar &#171;PK&#187;</text><line style="stroke:#181818;stroke-width:0.5;" x1="1204.5" x2="1363.8333" y1="410.1094" y2="410.1094"/></g><!--class Scores--><g id="elem_Scores"><rect codeLine="101" fill="#F1F1F1" height="100.8281" id="Scores" rx="2.5" ry="2.5" style="stroke:#181818;stroke-width:0.5;" width="188.3333" x="1190" y="59.5"/><ellipse cx="1257.9167" cy="75.5" fill="#FFFFFF" rx="11" ry="11" style="stroke:#181818;stroke-width:1.0;"/><path d="M1258.8385,72.8906 L1258.8385,79.5469 L1259.9948,79.5469 Q1260.6042,79.5469 1260.862,79.7813 Q1261.1198,80.0156 1261.1198,80.4063 Q1261.1198,80.7813 1260.862,81.0156 Q1260.6042,81.25 1259.9948,81.25 L1256.0104,81.25 Q1255.3854,81.25 1255.1276,81.0156 Q1254.8698,80.7813 1254.8698,80.3906 Q1254.8698,80.0156 1255.1276,79.7813 Q1255.3854,79.5469 1256.0104,79.5469 L1257.1354,79.5469 L1257.1354,72.8906 L1255.2917,72.8906 L1255.2917,74.5 Q1255.2917,75.1094 1255.0573,75.375 Q1254.8229,75.6406 1254.4479,75.6406 Q1254.0729,75.6406 1253.8385,75.375 Q1253.6042,75.1094 1253.6042,74.5 L1253.6042,71.1875 L1262.4167,71.1875 L1262.4167,74.5 Q1262.4167,75.1094 1262.1745,75.375 Q1261.9323,75.6406 1261.5573,75.6406 Q1261.1823,75.6406 1260.9479,75.375 Q1260.7135,75.1094 1260.7135,74.5 L1260.7135,72.8906 L1258.8385,72.8906 Z " fill="#000000"/><text fill="#000000" font-family="sans-serif" font-size="14" lengthAdjust="spacing" textLength="44" x="1278.4167" y="81.2285">Scores</text><line style="stroke:#181818;stroke-width:0.5;" x1="1191" x2="1377.3333" y1="91.5" y2="91.5"/><path d="M1203.4167,100.276 C1201.8067,100.276 1200.5,101.5827 1200.5,103.1927 C1200.5,103.3794 1200.5,103.566 1200.535,103.741 L1197,107.276 L1197,109.6094 L1200.5,109.6094 L1200.5,107.276 L1202.8333,107.276 L1202.8333,106.1094 L1202.8683,106.0744 C1203.0433,106.1094 1203.23,106.1094 1203.4167,106.1094 C1205.0267,106.1094 1206.3333,104.8027 1206.3333,103.1927 C1206.3333,101.5827 1205.0267,100.276 1203.4167,100.276 M1204,101.4427 C1204.6417,101.4427 1205.1667,101.9677 1205.1667,102.6094 C1205.1667,103.251 1204.6417,103.776 1204,103.776 C1203.3583,103.776 1202.8333,103.251 1202.8333,102.6094 C1202.8333,101.9677 1203.3583,101.4427 1204,101.4427 " fill="#B8861B" style="stroke:;stroke-width:0.0;stroke-dasharray:;"/><text fill="#000000" font-family="sans-serif" font-size="14" font-weight="bold" lengthAdjust="spacing" textLength="40" x="1211.3333" y="110.0332">testid</text><text fill="#000000" font-family="sans-serif" font-size="14" lengthAdjust="spacing" textLength="94" x="1251.3333" y="110.0332">: varchar &#171;PK&#187;</text><path d="M1203.4167,117.8854 C1201.8067,117.8854 1200.5,119.1921 1200.5,120.8021 C1200.5,120.9888 1200.5,121.1754 1200.535,121.3504 L1197,124.8854 L1197,127.2187 L1200.5,127.2187 L1200.5,124.8854 L1202.8333,124.8854 L1202.8333,123.7187 L1202.8683,123.6837 C1203.0433,123.7187 1203.23,123.7187 1203.4167,123.7187 C1205.0267,123.7187 1206.3333,122.4121 1206.3333,120.8021 C1206.3333,119.1921 1205.0267,117.8854 1203.4167,117.8854 M1204,119.0521 C1204.6417,119.0521 1205.1667,119.5771 1205.1667,120.2187 C1205.1667,120.8604 1204.6417,121.3854 1204,121.3854 C1203.3583,121.3854 1202.8333,120.8604 1202.8333,120.2187 C1202.8333,119.5771 1203.3583,119.0521 1204,119.0521 " fill="#B8861B" style="stroke:;stroke-width:0.0;stroke-dasharray:;"/><text fill="#000000" font-family="sans-serif" font-size="14" font-weight="bold" lengthAdjust="spacing" textLength="67" x="1211.3333" y="127.6426">studentid</text><text fill="#000000" font-family="sans-serif" font-size="14" lengthAdjust="spacing" textLength="94" x="1278.3333" y="127.6426">: varchar &#171;PK&#187;</text><path d="M1200.5,135.4948 C1198.5633,135.4948 1197,137.0581 1197,138.9948 C1197,140.9315 1198.5633,142.4948 1200.5,142.4948 C1202.4367,142.4948 1204,140.9315 1204,138.9948 C1204,137.0581 1202.4367,135.4948 1200.5,135.4948 " fill="#EFEFEF" style="stroke:;stroke-width:0.0;stroke-dasharray:;"/><text fill="#000000" font-family="sans-serif" font-size="14" lengthAdjust="spacing" textLength="80" x="1211.3333" y="145.252">score: tinyint</text><line style="stroke:#181818;stroke-width:0.5;" x1="1191" x2="1377.3333" y1="152.3281" y2="152.3281"/></g><!--link Employees to Employees--><g id="link_Employees_Employees"><path codeLine="108" d="M667.2163,677.9684 C687.4163,683.7984 694.5,703.16 694.5,740.5 C694.5,777.84 687.4163,797.2016 667.2163,803.0316 " fill="none" id="Employees-Employees" style="stroke:#181818;stroke-width:1.0;"/><line style="stroke:#181818;stroke-width:1.0;" x1="667.2163" x2="657.8662" y1="677.9684" y2="681.5147"/><line style="stroke:#181818;stroke-width:1.0;" x1="667.2163" x2="661.1938" y1="677.9684" y2="669.9853"/><line style="stroke:#181818;stroke-width:1.0;" x1="667.2163" x2="659.53" y1="677.9684" y2="675.75"/><line style="stroke:#181818;stroke-width:1.0;" x1="668.0287" x2="670.247" y1="682.3661" y2="674.6798"/><line style="stroke:#181818;stroke-width:1.0;" x1="664.4823" x2="662.264" y1="807.984" y2="800.2977"/><line style="stroke:#181818;stroke-width:1.0;" x1="667.3647" x2="665.1463" y1="807.1521" y2="799.4658"/><line style="stroke:#181818;stroke-width:1.0;" x1="667.2163" x2="659.53" y1="803.0316" y2="805.25"/></g><!--link Products to Categories--><g id="link_Products_Categories"><path codeLine="109" d="M883.2417,469.2268 C901.5017,496.2268 917.33,520.39 935,549 C964.07,596.06 991.1344,644.1549 1012.4044,682.9549 " fill="none" id="Products-Categories" style="stroke:#181818;stroke-width:1.0;"/><line style="stroke:#181818;stroke-width:1.0;" x1="883.2417" x2="873.7899" y1="469.2268" y2="465.9613"/><line style="stroke:#181818;stroke-width:1.0;" x1="883.2417" x2="883.7301" y1="469.2268" y2="459.2387"/><line style="stroke:#181818;stroke-width:1.0;" x1="883.2417" x2="878.76" y1="469.2268" y2="462.6"/><line style="stroke:#181818;stroke-width:1.0;" x1="881.0487" x2="887.6755" y1="473.1243" y2="468.6427"/><line style="stroke:#181818;stroke-width:1.0;" x1="1017.8347" x2="1010.8197" y1="684.5397" y2="688.3853"/><line style="stroke:#181818;stroke-width:1.0;" x1="1016.3926" x2="1009.3775" y1="681.909" y2="685.7546"/><line style="stroke:#181818;stroke-width:1.0;" x1="1012.4044" x2="1016.25" y1="682.9549" y2="689.97"/></g><!--link Products to Suppliers--><g id="link_Products_Suppliers"><path codeLine="110" d="M826,470.66 C826,516.37 826,559.51 826,611.39 " fill="none" id="Products-Suppliers" style="stroke:#181818;stroke-width:1.0;"/><line style="stroke:#181818;stroke-width:1.0;" x1="826" x2="820" y1="470.66" y2="462.66"/><line style="stroke:#181818;stroke-width:1.0;" x1="826" x2="832" y1="470.66" y2="462.66"/><line style="stroke:#181818;stroke-width:1.0;" x1="826" x2="826" y1="470.66" y2="462.66"/><line style="stroke:#181818;stroke-width:1.0;" x1="822" x2="830" y1="472.66" y2="472.66"/><line style="stroke:#181818;stroke-width:1.0;" x1="830" x2="822" y1="615.39" y2="615.39"/><line style="stroke:#181818;stroke-width:1.0;" x1="830" x2="822" y1="612.39" y2="612.39"/><line style="stroke:#181818;stroke-width:1.0;" x1="826" x2="826" y1="611.39" y2="619.39"/></g><!--link Orders to Customers--><g id="link_Orders_Customers"><path codeLine="111" d="M233.5917,532.0272 C228.5017,540.0172 227.81,541.22 223,549 C209.09,571.53 198.6914,588.9426 185.1114,612.4526 " fill="none" id="Orders-Customers" style="stroke:#181818;stroke-width:1.0;"/><line style="stroke:#181818;stroke-width:1.0;" x1="233.5917" x2="232.8296" y1="532.0272" y2="522.0563"/><line style="stroke:#181818;stroke-width:1.0;" x1="233.5917" x2="242.9504" y1="532.0272" y2="528.5037"/><line style="stroke:#181818;stroke-width:1.0;" x1="233.5917" x2="237.89" y1="532.0272" y2="525.28"/><line style="stroke:#181818;stroke-width:1.0;" x1="229.1435" x2="235.8908" y1="531.5649" y2="535.8631"/><line style="stroke:#181818;stroke-width:1.0;" x1="186.5744" x2="179.647" y1="617.917" y2="613.9156"/><line style="stroke:#181818;stroke-width:1.0;" x1="188.0749" x2="181.1476" y1="615.3193" y2="611.3178"/><line style="stroke:#181818;stroke-width:1.0;" x1="185.1114" x2="181.11" y1="612.4526" y2="619.38"/></g><!--link Orders to Employees--><g id="link_Orders_Employees"><path codeLine="112" d="M428.5744,530.615 C447.1144,558.005 457.5836,573.4664 476.0136,600.6764 " fill="none" id="Orders-Employees" style="stroke:#181818;stroke-width:1.0;"/><line style="stroke:#181818;stroke-width:1.0;" x1="428.5744" x2="419.1213" y1="530.615" y2="527.3533"/><line style="stroke:#181818;stroke-width:1.0;" x1="428.5744" x2="429.0587" y1="530.615" y2="520.6267"/><line style="stroke:#181818;stroke-width:1.0;" x1="428.5744" x2="424.09" y1="530.615" y2="523.99"/><line style="stroke:#181818;stroke-width:1.0;" x1="426.383" x2="433.008" y1="534.5134" y2="530.029"/><line style="stroke:#181818;stroke-width:1.0;" x1="481.5686" x2="474.945" y1="601.745" y2="606.2314"/><line style="stroke:#181818;stroke-width:1.0;" x1="479.8863" x2="473.2626" y1="599.2611" y2="603.7475"/><line style="stroke:#181818;stroke-width:1.0;" x1="476.0136" x2="480.5" y1="600.6764" y2="607.3"/></g><!--link Orders to Shippers--><g id="link_Orders_Shippers"><path codeLine="113" d="M331.4415,541.14 C331.5915,597.02 331.7165,641.01 331.8365,681.83 " fill="none" id="Orders-Shippers" style="stroke:#181818;stroke-width:1.0;"/><line style="stroke:#181818;stroke-width:1.0;" x1="331.4415" x2="325.42" y1="541.14" y2="533.1561"/><line style="stroke:#181818;stroke-width:1.0;" x1="331.4415" x2="337.42" y1="541.14" y2="533.1239"/><line style="stroke:#181818;stroke-width:1.0;" x1="331.4415" x2="331.42" y1="541.14" y2="533.14"/><line style="stroke:#181818;stroke-width:1.0;" x1="327.4469" x2="335.4468" y1="543.1507" y2="543.1292"/><line style="stroke:#181818;stroke-width:1.0;" x1="335.8482" x2="327.8483" y1="685.8183" y2="685.8418"/><line style="stroke:#181818;stroke-width:1.0;" x1="335.8394" x2="327.8394" y1="682.8183" y2="682.8418"/><line style="stroke:#181818;stroke-width:1.0;" x1="331.8365" x2="331.86" y1="681.83" y2="689.83"/></g><!--link OrderDetails to Orders--><g id="link_OrderDetails_Orders"><path codeLine="114" d="M336.0742,186.2574 C335.6042,204.5174 335.4974,209.0527 334.9574,229.8727 " fill="none" id="OrderDetails-Orders" style="stroke:#181818;stroke-width:1.0;"/><line style="stroke:#181818;stroke-width:1.0;" x1="336.0742" x2="330.282" y1="186.2574" y2="178.1056"/><line style="stroke:#181818;stroke-width:1.0;" x1="336.0742" x2="342.278" y1="186.2574" y2="178.4144"/><line style="stroke:#181818;stroke-width:1.0;" x1="336.0742" x2="336.28" y1="186.2574" y2="178.26"/><line style="stroke:#181818;stroke-width:1.0;" x1="332.024" x2="340.0214" y1="188.1538" y2="188.3596"/><line style="stroke:#181818;stroke-width:1.0;" x1="338.8524" x2="330.8551" y1="233.9751" y2="233.7676"/><line style="stroke:#181818;stroke-width:1.0;" x1="338.9302" x2="330.9328" y1="230.9761" y2="230.7686"/><line style="stroke:#181818;stroke-width:1.0;" x1="334.9574" x2="334.75" y1="229.8727" y2="237.87"/></g><!--link OrderDetails to Products--><g id="link_OrderDetails_Products"><path codeLine="115" d="M423.1086,158.7014 C511.1586,208.0514 639.9714,280.2386 731.6414,331.6186 " fill="none" id="OrderDetails-Products" style="stroke:#181818;stroke-width:1.0;"/><line style="stroke:#181818;stroke-width:1.0;" x1="423.1086" x2="413.1965" y1="158.7014" y2="160.024"/><line style="stroke:#181818;stroke-width:1.0;" x1="423.1086" x2="419.0635" y1="158.7014" y2="149.556"/><line style="stroke:#181818;stroke-width:1.0;" x1="423.1086" x2="416.13" y1="158.7014" y2="154.79"/><line style="stroke:#181818;stroke-width:1.0;" x1="422.8976" x2="426.809" y1="163.1685" y2="156.1899"/><line style="stroke:#181818;stroke-width:1.0;" x1="737.0864" x2="733.175" y1="330.085" y2="337.0636"/><line style="stroke:#181818;stroke-width:1.0;" x1="734.4694" x2="730.558" y1="328.6182" y2="335.5968"/><line style="stroke:#181818;stroke-width:1.0;" x1="731.6414" x2="738.62" y1="331.6186" y2="335.53"/></g><!--link Scores to Tests--><g id="link_Scores_Tests"><path codeLine="116" d="M1284,168.53 C1284,224.25 1284,297.14 1284,344.44 " fill="none" id="Scores-Tests" style="stroke:#181818;stroke-width:1.0;"/><line style="stroke:#181818;stroke-width:1.0;" x1="1284" x2="1278" y1="168.53" y2="160.53"/><line style="stroke:#181818;stroke-width:1.0;" x1="1284" x2="1290" y1="168.53" y2="160.53"/><line style="stroke:#181818;stroke-width:1.0;" x1="1284" x2="1284" y1="168.53" y2="160.53"/><line style="stroke:#181818;stroke-width:1.0;" x1="1280" x2="1288" y1="170.53" y2="170.53"/><line style="stroke:#181818;stroke-width:1.0;" x1="1288" x2="1280" y1="348.44" y2="348.44"/><line style="stroke:#181818;stroke-width:1.0;" x1="1288" x2="1280" y1="345.44" y2="345.44"/><line style="stroke:#181818;stroke-width:1.0;" x1="1284" x2="1284" y1="344.44" y2="352.44"/></g><!--SRC=[xLRFRzem5Bxdht0xQIjeKEqoLHNYqWvDsc5LuJuPvq6i9NPgEnlHu7-VdHWQ9xPRDEqmQN0WvFlUy_ln-TaNAMme0rGAMc1HV_iEzTLkX6Rh-Opmd8lRD-kRcuyVzD-t6fhFhfktSxIRNQ_doOMrtd01TCjErjOKDv-1wSbClwWArhM0ZVbgYm9IYYS221UfprJXTGx64fYYgaQNkqiqcw6hrNlqCwCAHcW-JreI-lmu_LIKEQy191eblnA4d7mH52LDqUWMKQQqbuSlsbPpR7Wenr8nN81Xi1zOa0oBBhwX8axG4UPna6y8huG2MOTeQofKbcBL-36_NJ2Z0a8OJbC1KeRy4bEz02PWIpaBeIMN2kU4fy7KT4vCYQ3xCkDiODkL4YgsejkOXMdCuTZM1y7JYYWTuNHPbMLEGVZRAoqQwp7XHObP7UiYuKnXebv1YVRx7-l7IUHuvq2-DjnfwMsve85jHbguZlR1Sc9LJa4IGKlLhuKl9Fle3wYql4Wybk8Bnr6gJsCBwyiX-egmw2rQCQfqeAHPij1DgPtqgJGwewo2niUQgkVKbpW7ERshfE95Q3yGZVxV2tzZBxJLNsQqB8F3g0N_iFx3y7enV1LfA09k8D_whavx8l6AkNTmzdNSh1GwbmGyLURO2k5jeGQmk-k6nUp7i37qJ7btaZ6FLTdWBqZKK68oDNXSgaqEBygrMSSZML_Rxq5Xcf_P_7C7Otn6FRKLaGNESsq_65ywaIQDIWyfIZfPAApaT0KoCB7r3Sb6PGjmZApdOQdlZN2cYy5ELLLgRfS1xgapPYb3qHEvDhaUadTeF1wZ-_QckZ9neKV8iJcGJ1zbujn83_l9PBztRgc9xmIpFEzv-qg3qpqfSQQ49VRE3Y_7YJBiv3W24uyi7M9h7A5v4akS7X_TFIldDm00]--></g></svg>